<?xml version="1.0" encoding="UTF-8" standalone="no"?>
<svg
   xmlns:dc="http://purl.org/dc/elements/1.1/"
   xmlns:cc="http://creativecommons.org/ns#"
   xmlns:rdf="http://www.w3.org/1999/02/22-rdf-syntax-ns#"
   xmlns:svg="http://www.w3.org/2000/svg"
   xmlns="http://www.w3.org/2000/svg"
   xmlns:sodipodi="http://sodipodi.sourceforge.net/DTD/sodipodi-0.dtd"
   xmlns:inkscape="http://www.inkscape.org/namespaces/inkscape"
   enable-background="new 0 0 24 24"
   height="24px"
   viewBox="0 0 24 24"
   width="24px"
   fill="#FFFFFF"
   version="1.1"
   id="svg18"
   sodipodi:docname="cameraswitch.svg"
   inkscape:version="1.0 (4035a4fb49, 2020-05-01)">
  <metadata
     id="metadata24">
    <rdf:RDF>
      <cc:Work
         rdf:about="">
        <dc:format>image/svg+xml</dc:format>
        <dc:type
           rdf:resource="http://purl.org/dc/dcmitype/StillImage" />
      </cc:Work>
    </rdf:RDF>
  </metadata>
  <defs
     id="defs22" />
  <sodipodi:namedview
     inkscape:document-rotation="0"
     pagecolor="#ffffff"
     bordercolor="#666666"
     borderopacity="1"
     objecttolerance="10"
     gridtolerance="10"
     guidetolerance="10"
     inkscape:pageopacity="0"
     inkscape:pageshadow="2"
     inkscape:window-width="1920"
     inkscape:window-height="1057"
     id="namedview20"
     showgrid="false"
     inkscape:zoom="30.833333"
     inkscape:cx="12"
     inkscape:cy="12"
     inkscape:window-x="1912"
     inkscape:window-y="-8"
     inkscape:window-maximized="1"
     inkscape:current-layer="svg18" />
  <g
     transform="matrix(1,0,0,1.0000438,0,-5.2541279e-4)"
     id="g16">
    <g
       id="g14">
      <path
         d="M 16,7 H 15 L 14,6 H 10 L 9,7 H 8 C 6.9,7 6,7.9 6,9 v 6 c 0,1.1 0.9,2 2,2 h 8 c 1.1,0 2,-0.9 2,-2 V 9 C 18,7.9 17.1,7 16,7 Z m 0,8 H 8 V 9 h 1.83 l 1,-1 h 2.34 l 1,1 H 16 Z"
         id="path6" />
      <circle
         cx="12"
         cy="12"
         r="2"
         id="circle8" />
      <path
         d="M 8.57,0.52 13.05,5 14.46,3.59 12.92,2.05 C 17.7,2.46 21.53,6.24 22,11 h 2 C 23.36,3.3 15.79,-1.67 8.57,0.52 Z"
         id="path10" />
      <path
         d="m 9.54,20.41 1.54,1.54 C 6.3,21.54 2.47,17.76 2,13 H 0 c 0.64,7.7 8.21,12.67 15.43,10.48 L 10.95,19 Z"
         id="path12" />
    </g>
  </g>
</svg>
