<?xml version="1.0" encoding="UTF-8" standalone="no"?>
<svg
   xmlns:dc="http://purl.org/dc/elements/1.1/"
   xmlns:cc="http://creativecommons.org/ns#"
   xmlns:rdf="http://www.w3.org/1999/02/22-rdf-syntax-ns#"
   xmlns:svg="http://www.w3.org/2000/svg"
   xmlns="http://www.w3.org/2000/svg"
   xmlns:sodipodi="http://sodipodi.sourceforge.net/DTD/sodipodi-0.dtd"
   xmlns:inkscape="http://www.inkscape.org/namespaces/inkscape"
   inkscape:version="1.0 (4035a4fb49, 2020-05-01)"
   sodipodi:docname="camera.svg"
   id="svg6"
   version="1.1"
   fill="#FFFFFF"
   width="24px"
   viewBox="0 0 24 24"
   height="24px">
  <metadata
     id="metadata12">
    <rdf:RDF>
      <cc:Work
         rdf:about="">
        <dc:format>image/svg+xml</dc:format>
        <dc:type
           rdf:resource="http://purl.org/dc/dcmitype/StillImage" />
      </cc:Work>
    </rdf:RDF>
  </metadata>
  <defs
     id="defs10" />
  <sodipodi:namedview
     inkscape:current-layer="svg6"
     inkscape:window-maximized="1"
     inkscape:window-y="-8"
     inkscape:window-x="1912"
     inkscape:cy="12"
     inkscape:cx="12"
     inkscape:zoom="30.833333"
     showgrid="false"
     id="namedview8"
     inkscape:window-height="1057"
     inkscape:window-width="1920"
     inkscape:pageshadow="2"
     inkscape:pageopacity="0"
     guidetolerance="10"
     gridtolerance="10"
     objecttolerance="10"
     borderopacity="1"
     bordercolor="#666666"
     pagecolor="#ffffff" />
  <path
     style="stroke-width:1.2"
     id="path4"
     d="M 14.544,3.6 16.74,6 H 21.6 V 20.4 H 2.4 V 6 H 7.26 L 9.456,3.6 h 5.088 M 15.6,1.2 H 8.4 L 6.204,3.6 H 2.4 C 1.08,3.6 0,4.68 0,6 v 14.4 c 0,1.32 1.08,2.4 2.4,2.4 h 19.2 c 1.32,0 2.4,-1.08 2.4,-2.4 V 6 C 24,4.68 22.92,3.6 21.6,3.6 H 17.796 Z M 12,9.6 c 1.98,0 3.6,1.62 3.6,3.6 0,1.98 -1.62,3.6 -3.6,3.6 -1.98,0 -3.6,-1.62 -3.6,-3.6 0,-1.98 1.62,-3.6 3.6,-3.6 m 0,-2.4 c -3.312,0 -6,2.688 -6,6 0,3.312 2.688,6 6,6 3.312,0 6,-2.688 6,-6 0,-3.312 -2.688,-6 -6,-6 z" />
</svg>
